<?xml version="1.0" encoding="utf-8"?>
<!-- Generator: Adobe Illustrator 26.3.1, SVG Export Plug-In . SVG Version: 6.00 Build 0)  -->
<svg version="1.1" id="Layer_1" xmlns="http://www.w3.org/2000/svg" xmlns:xlink="http://www.w3.org/1999/xlink" x="0px" y="0px"
	 viewBox="0 0 143.71 163.12" style="enable-background:new 0 0 143.71 163.12;" xml:space="preserve">
<style type="text/css">
	.st0{enable-background:new    ;}
	.st1{fill:#057A8B;}
	.st2{fill:none;stroke:#077B8B;stroke-width:0.9954;stroke-miterlimit:10;}
	.st3{fill:#077B8B;}
	.st4{fill-rule:evenodd;clip-rule:evenodd;fill:#EB2127;}
	.st5{fill-rule:evenodd;clip-rule:evenodd;fill:#057A8B;}
	.st6{fill-rule:evenodd;clip-rule:evenodd;fill:#03A550;}
</style>
<g>
	<g>
		<g class="st0">
			<path class="st1" d="M1.08,157.73c0.15,0,1.53-0.22,1.53-2.71v-13.68c0-2.49-1.38-2.71-1.53-2.71v-0.05h7.04v0.05
				c-0.15,0-1.53,0.22-1.53,2.71v13.68c0,2.49,1.38,2.71,1.53,2.71v0.05H1.08V157.73z"/>
			<path class="st1" d="M12.35,157.73c0.15,0,1.53-0.22,1.53-2.71v-13.68c0-2.49-1.38-2.71-1.53-2.71v-0.05h4.58l10.63,12.92v-10.17
				c0-2.49-1.38-2.71-1.53-2.71v-0.05h3.74v0.05c-0.15,0-1.53,0.22-1.53,2.71v16.59l-13.68-16.59v13.68c0,2.49,1.38,2.71,1.53,2.71
				v0.05h-3.74V157.73z"/>
			<path class="st1" d="M32.48,142.47h-0.05v-3.89h15.8v3.89h-0.05c0-0.3-0.27-3.25-3.05-3.25h-2.81v15.8
				c0,2.49,1.38,2.71,1.53,2.71v0.05h-7.04v-0.05c0.15,0,1.53-0.22,1.53-2.71v-15.8h-2.81C32.75,139.22,32.48,142.18,32.48,142.47z"
				/>
			<path class="st1" d="M64.23,142.47h-0.05c0-0.3-0.27-3.25-3.05-3.25h-4.23v8.39h3.99c2.17,0,2.39-2.17,2.39-2.39h0.03v5.42h-0.03
				c0-0.22-0.22-2.39-2.39-2.39h-3.99v8.89h4.73c2.78,0,3.05-2.95,3.05-3.25h0.05v3.89H51.38v-0.05c0.15,0,1.53-0.22,1.53-2.71
				v-13.68c0-2.49-1.38-2.71-1.53-2.71v-0.05h12.85V142.47z"/>
			<path class="st1" d="M69.54,157.73c0.15,0,1.53-0.22,1.53-2.71v-13.68c0-2.49-1.38-2.71-1.53-2.71v-0.05h7.06
				c2.68,0,4.95,0.42,6.23,1.75c0.71,0.74,1.13,1.77,1.13,3.17c0,2.98-2.14,5.22-4.97,5.96c2.12,0,2.9,0.57,3.59,2.09l1.38,3
				c1.21,2.68,2.63,3.18,2.85,3.18v0.05h-3.79c-2.19,0-2.51-1.03-3.57-3.35l-0.96-2.12c-0.91-1.99-1.55-2.49-2.81-2.49h-0.64v5.19
				c0,2.49,1.38,2.71,1.53,2.71v0.05h-7.04V157.73z M75.62,149.19c3.1,0,4.31-2.56,4.31-5.22c0-1.21-0.17-2.29-0.64-3.1
				c-0.57-1.03-1.55-1.65-3.17-1.65h-1.06v9.97H75.62z"/>
			<path class="st1" d="M90.06,157.73c0.15,0,1.53-0.22,1.53-2.71v-13.68c0-2.49-1.38-2.71-1.53-2.71v-0.05h7.04v0.05
				c-0.15,0-1.53,0.22-1.53,2.71v13.68c0,2.49,1.38,2.71,1.53,2.71v0.05h-7.04V157.73z"/>
			<path class="st1" d="M101.33,148.18c0-5.42,3.25-9.94,9.35-9.94c6.1,0,9.35,4.53,9.35,9.94c0,5.41-3.25,9.94-9.35,9.94
				C104.58,158.13,101.33,153.6,101.33,148.18z M110.69,157.49c3.62,0,5.32-4.14,5.32-9.3c0-5.17-1.7-9.3-5.32-9.3
				s-5.32,4.13-5.32,9.3C105.37,153.35,107.07,157.49,110.69,157.49z"/>
			<path class="st1" d="M124.27,157.73c0.15,0,1.53-0.22,1.53-2.71v-13.68c0-2.49-1.38-2.71-1.53-2.71v-0.05h7.06
				c2.68,0,4.95,0.42,6.23,1.75c0.71,0.74,1.13,1.77,1.13,3.17c0,2.98-2.14,5.22-4.97,5.96c2.12,0,2.9,0.57,3.59,2.09l1.38,3
				c1.21,2.68,2.63,3.18,2.86,3.18v0.05h-3.79c-2.19,0-2.51-1.03-3.57-3.35l-0.96-2.12c-0.91-1.99-1.55-2.49-2.81-2.49h-0.64v5.19
				c0,2.49,1.38,2.71,1.53,2.71v0.05h-7.04V157.73z M130.35,149.19c3.1,0,4.31-2.56,4.31-5.22c0-1.21-0.17-2.29-0.64-3.1
				c-0.57-1.03-1.55-1.65-3.18-1.65h-1.06v9.97H130.35z"/>
		</g>
	</g>
	<g>
		<g>
			<path class="st2" d="M1.08,157.73c0.15,0,1.53-0.22,1.53-2.71v-13.68c0-2.49-1.38-2.71-1.53-2.71v-0.05h7.04v0.05
				c-0.15,0-1.53,0.22-1.53,2.71v13.68c0,2.49,1.38,2.71,1.53,2.71v0.05H1.08V157.73z"/>
			<path class="st2" d="M12.35,157.73c0.15,0,1.53-0.22,1.53-2.71v-13.68c0-2.49-1.38-2.71-1.53-2.71v-0.05h4.58l10.63,12.92v-10.17
				c0-2.49-1.38-2.71-1.53-2.71v-0.05h3.74v0.05c-0.15,0-1.53,0.22-1.53,2.71v16.59l-13.68-16.59v13.68c0,2.49,1.38,2.71,1.53,2.71
				v0.05h-3.74V157.73z"/>
			<path class="st2" d="M32.48,142.47h-0.05v-3.89h15.8v3.89h-0.05c0-0.3-0.27-3.25-3.05-3.25h-2.81v15.8
				c0,2.49,1.38,2.71,1.53,2.71v0.05h-7.04v-0.05c0.15,0,1.53-0.22,1.53-2.71v-15.8h-2.81C32.75,139.22,32.48,142.18,32.48,142.47z"
				/>
			<path class="st2" d="M64.23,142.47h-0.05c0-0.3-0.27-3.25-3.05-3.25h-4.23v8.39h3.99c2.17,0,2.39-2.17,2.39-2.39h0.03v5.42h-0.03
				c0-0.22-0.22-2.39-2.39-2.39h-3.99v8.89h4.73c2.78,0,3.05-2.95,3.05-3.25h0.05v3.89H51.38v-0.05c0.15,0,1.53-0.22,1.53-2.71
				v-13.68c0-2.49-1.38-2.71-1.53-2.71v-0.05h12.85V142.47z"/>
			<path class="st2" d="M69.54,157.73c0.15,0,1.53-0.22,1.53-2.71v-13.68c0-2.49-1.38-2.71-1.53-2.71v-0.05h7.06
				c2.68,0,4.95,0.42,6.23,1.75c0.71,0.74,1.13,1.77,1.13,3.17c0,2.98-2.14,5.22-4.97,5.96c2.12,0,2.9,0.57,3.59,2.09l1.38,3
				c1.21,2.68,2.63,3.18,2.85,3.18v0.05h-3.79c-2.19,0-2.51-1.03-3.57-3.35l-0.96-2.12c-0.91-1.99-1.55-2.49-2.81-2.49h-0.64v5.19
				c0,2.49,1.38,2.71,1.53,2.71v0.05h-7.04V157.73z M75.62,149.19c3.1,0,4.31-2.56,4.31-5.22c0-1.21-0.17-2.29-0.64-3.1
				c-0.57-1.03-1.55-1.65-3.17-1.65h-1.06v9.97H75.62z"/>
			<path class="st2" d="M90.06,157.73c0.15,0,1.53-0.22,1.53-2.71v-13.68c0-2.49-1.38-2.71-1.53-2.71v-0.05h7.04v0.05
				c-0.15,0-1.53,0.22-1.53,2.71v13.68c0,2.49,1.38,2.71,1.53,2.71v0.05h-7.04V157.73z"/>
			<path class="st2" d="M101.33,148.18c0-5.42,3.25-9.94,9.35-9.94c6.1,0,9.35,4.53,9.35,9.94c0,5.41-3.25,9.94-9.35,9.94
				C104.58,158.13,101.33,153.6,101.33,148.18z M110.69,157.49c3.62,0,5.32-4.14,5.32-9.3c0-5.17-1.7-9.3-5.32-9.3
				s-5.32,4.13-5.32,9.3C105.37,153.35,107.07,157.49,110.69,157.49z"/>
			<path class="st2" d="M124.27,157.73c0.15,0,1.53-0.22,1.53-2.71v-13.68c0-2.49-1.38-2.71-1.53-2.71v-0.05h7.06
				c2.68,0,4.95,0.42,6.23,1.75c0.71,0.74,1.13,1.77,1.13,3.17c0,2.98-2.14,5.22-4.97,5.96c2.12,0,2.9,0.57,3.59,2.09l1.38,3
				c1.21,2.68,2.63,3.18,2.86,3.18v0.05h-3.79c-2.19,0-2.51-1.03-3.57-3.35l-0.96-2.12c-0.91-1.99-1.55-2.49-2.81-2.49h-0.64v5.19
				c0,2.49,1.38,2.71,1.53,2.71v0.05h-7.04V157.73z M130.35,149.19c3.1,0,4.31-2.56,4.31-5.22c0-1.21-0.17-2.29-0.64-3.1
				c-0.57-1.03-1.55-1.65-3.18-1.65h-1.06v9.97H130.35z"/>
		</g>
	</g>
	<g>
		<g>
			<path class="st3" d="M1.08,157.73c0.15,0,1.53-0.22,1.53-2.71v-13.68c0-2.49-1.38-2.71-1.53-2.71v-0.05h7.04v0.05
				c-0.15,0-1.53,0.22-1.53,2.71v13.68c0,2.49,1.38,2.71,1.53,2.71v0.05H1.08V157.73z"/>
			<path class="st3" d="M12.35,157.73c0.15,0,1.53-0.22,1.53-2.71v-13.68c0-2.49-1.38-2.71-1.53-2.71v-0.05h4.58l10.63,12.92v-10.17
				c0-2.49-1.38-2.71-1.53-2.71v-0.05h3.74v0.05c-0.15,0-1.53,0.22-1.53,2.71v16.59l-13.68-16.59v13.68c0,2.49,1.38,2.71,1.53,2.71
				v0.05h-3.74V157.73z"/>
			<path class="st3" d="M32.48,142.47h-0.05v-3.89h15.8v3.89h-0.05c0-0.3-0.27-3.25-3.05-3.25h-2.81v15.8
				c0,2.49,1.38,2.71,1.53,2.71v0.05h-7.04v-0.05c0.15,0,1.53-0.22,1.53-2.71v-15.8h-2.81C32.75,139.22,32.48,142.18,32.48,142.47z"
				/>
			<path class="st3" d="M64.23,142.47h-0.05c0-0.3-0.27-3.25-3.05-3.25h-4.23v8.39h3.99c2.17,0,2.39-2.17,2.39-2.39h0.03v5.42h-0.03
				c0-0.22-0.22-2.39-2.39-2.39h-3.99v8.89h4.73c2.78,0,3.05-2.95,3.05-3.25h0.05v3.89H51.38v-0.05c0.15,0,1.53-0.22,1.53-2.71
				v-13.68c0-2.49-1.38-2.71-1.53-2.71v-0.05h12.85V142.47z"/>
			<path class="st3" d="M69.54,157.73c0.15,0,1.53-0.22,1.53-2.71v-13.68c0-2.49-1.38-2.71-1.53-2.71v-0.05h7.06
				c2.68,0,4.95,0.42,6.23,1.75c0.71,0.74,1.13,1.77,1.13,3.17c0,2.98-2.14,5.22-4.97,5.96c2.12,0,2.9,0.57,3.59,2.09l1.38,3
				c1.21,2.68,2.63,3.18,2.85,3.18v0.05h-3.79c-2.19,0-2.51-1.03-3.57-3.35l-0.96-2.12c-0.91-1.99-1.55-2.49-2.81-2.49h-0.64v5.19
				c0,2.49,1.38,2.71,1.53,2.71v0.05h-7.04V157.73z M75.62,149.19c3.1,0,4.31-2.56,4.31-5.22c0-1.21-0.17-2.29-0.64-3.1
				c-0.57-1.03-1.55-1.65-3.17-1.65h-1.06v9.97H75.62z"/>
			<path class="st3" d="M90.06,157.73c0.15,0,1.53-0.22,1.53-2.71v-13.68c0-2.49-1.38-2.71-1.53-2.71v-0.05h7.04v0.05
				c-0.15,0-1.53,0.22-1.53,2.71v13.68c0,2.49,1.38,2.71,1.53,2.71v0.05h-7.04V157.73z"/>
			<path class="st3" d="M101.33,148.18c0-5.42,3.25-9.94,9.35-9.94c6.1,0,9.35,4.53,9.35,9.94c0,5.41-3.25,9.94-9.35,9.94
				C104.58,158.13,101.33,153.6,101.33,148.18z M110.69,157.49c3.62,0,5.32-4.14,5.32-9.3c0-5.17-1.7-9.3-5.32-9.3
				s-5.32,4.13-5.32,9.3C105.37,153.35,107.07,157.49,110.69,157.49z"/>
			<path class="st3" d="M124.27,157.73c0.15,0,1.53-0.22,1.53-2.71v-13.68c0-2.49-1.38-2.71-1.53-2.71v-0.05h7.06
				c2.68,0,4.95,0.42,6.23,1.75c0.71,0.74,1.13,1.77,1.13,3.17c0,2.98-2.14,5.22-4.97,5.96c2.12,0,2.9,0.57,3.59,2.09l1.38,3
				c1.21,2.68,2.63,3.18,2.86,3.18v0.05h-3.79c-2.19,0-2.51-1.03-3.57-3.35l-0.96-2.12c-0.91-1.99-1.55-2.49-2.81-2.49h-0.64v5.19
				c0,2.49,1.38,2.71,1.53,2.71v0.05h-7.04V157.73z M130.35,149.19c3.1,0,4.31-2.56,4.31-5.22c0-1.21-0.17-2.29-0.64-3.1
				c-0.57-1.03-1.55-1.65-3.18-1.65h-1.06v9.97H130.35z"/>
		</g>
	</g>
	<g>
		<path class="st4" d="M58.6,29.97l0.06-0.04l3.8-2.29l0.32-0.19c0.76-0.46,1.56-0.94,2.41-1.45h0.01l19.01-11.44l16.77,10.11
			c3.94,2.21,1.23,6.01-1.77,4.73l-15.08-9.09l-8.5,5.15L76.55,26c7.8,4.71,11.07,6.63,18.81,11.41
			c8.82,4.77,23.65-9.39,10.75-18.85L84.75,5.83l-8.92,5.21l-0.02,0L44.05,29.55l-0.01-0.03c-2.99,1.27-5.74-2.61-1.81-4.81
			c1.57-0.9,3.14-1.81,4.72-2.71v0l18.79-10.96l-0.47-0.28L57,5.83L35.63,18.56c-12.89,9.46,1.94,23.62,10.75,18.85
			C51.56,34.22,54.74,32.3,58.6,29.97L58.6,29.97z M60.39,34.7l-0.15,0.09l0,0c-3.76,2.27-7.51,4.54-11.24,6.85l-0.12,0.08
			l-0.13,0.07c-1.16,0.63-2.4,1.07-3.7,1.31c-4.73,0.9-9.65-0.82-13.29-3.83c-2.9-2.39-5.11-5.69-5.86-9.4
			c-1.27-6.25,1.85-11.66,6.8-15.3l0.19-0.14L57,0.05l9.75,5.81l3.88,2.31L84.66,0l24.2,14.42l0.19,0.14
			c4.95,3.63,8.07,9.04,6.8,15.3c-1.94,9.56-13.83,16.8-22.85,11.92l-0.13-0.07l-0.12-0.08c-5.83-3.61-11.71-7.13-17.58-10.67
			l-4.3-2.59l-4.3,2.59C64.51,32.21,62.45,33.45,60.39,34.7L60.39,34.7z"/>
		<path class="st5" d="M56.87,100.53c0,0,3,14.71,19.01,21.83c14.73,0,42.81-11.82,40.07-44.35
			C115.95,78.01,105.56,118.83,56.87,100.53z"/>
		<path class="st5" d="M53.87,95.56l0.15-53.51c-1.14,0.7-2.29,1.41-3.45,2.12l-0.19,0.12l-0.2,0.11c-1.42,0.77-2.96,1.31-4.56,1.62
			c-1.02,0.2-2.07,0.29-3.13,0.29c-4.43,0-8.91-1.69-12.63-4.75c-1.68-1.39-3.11-3-4.24-4.74c0,20.37,0,40.88,0,44.27
			c0,33.73,28.51,41.27,45.21,41.27C54.64,112.94,53.87,95.56,53.87,95.56z"/>
		<path class="st6" d="M77.01,35.56l-6.14-3.7l-9.09,5.48c-1.59,0.96-3.24,1.96-4.92,2.98v57.5c11.28,4.24,20.5,5.3,28.02,4.44
			V40.32C82.24,38.72,79.6,37.12,77.01,35.56z"/>
		<path class="st5" d="M99.27,46.33c-2.74,0-5.33-0.65-7.69-1.93l-0.2-0.11l-0.19-0.12c-1.3-0.81-2.62-1.61-3.93-2.41l-0.24,60.31
			c0,0,22.46-1.29,29.13-31.6c0-1.3,0-16.35,0-33.68C112.48,42.4,105.94,46.33,99.27,46.33z"/>
	</g>
</g>
</svg>
