<?xml version="1.0" encoding="utf-8"?>
<!-- Generator: Adobe Illustrator 26.3.1, SVG Export Plug-In . SVG Version: 6.00 Build 0)  -->
<svg version="1.1" id="Layer_1" xmlns="http://www.w3.org/2000/svg" xmlns:xlink="http://www.w3.org/1999/xlink" x="0px" y="0px"
	 viewBox="0 0 388.67 169.3" style="enable-background:new 0 0 388.67 169.3;" xml:space="preserve">
<style type="text/css">
	.st0{fill:#0751A0;}
	.st1{fill:#0751A0;stroke:#000000;stroke-miterlimit:10;}
	.st2{fill-rule:evenodd;clip-rule:evenodd;fill:#2CA343;}
	.st3{fill-rule:evenodd;clip-rule:evenodd;fill:#6DBE45;}
	.st4{fill-rule:evenodd;clip-rule:evenodd;fill:#1A9FDA;}
	.st5{fill:#59585A;}
	.st6{fill-rule:evenodd;clip-rule:evenodd;fill:url(#SVGID_1_);}
	.st7{fill-rule:evenodd;clip-rule:evenodd;}
	.st8{fill:#58585A;}
	.st9{fill-rule:evenodd;clip-rule:evenodd;fill:url(#SVGID_00000042697889265622035250000015520076885045983888_);}
	.st10{fill:#1A9FDA;}
	.st11{fill-rule:evenodd;clip-rule:evenodd;fill:#0751A0;}
	.st12{fill-rule:evenodd;clip-rule:evenodd;fill:#ED1C24;}
	.st13{fill-rule:evenodd;clip-rule:evenodd;fill:#057A8B;}
	.st14{fill-rule:evenodd;clip-rule:evenodd;fill:#F7941D;}
	.st15{fill-rule:evenodd;clip-rule:evenodd;fill:#00A651;}
	.st16{fill:#DD1F2B;}
	.st17{fill:#1A4580;}
	.st18{fill:#057A8B;}
	.st19{fill-rule:evenodd;clip-rule:evenodd;fill:#FFFFFF;}
	.st20{fill:#FFFFFF;}
	.st21{enable-background:new    ;}
</style>
<g>
	<g>
		<path class="st19" d="M45.64,41.47l0.09-0.05l5.26-3.17l0.44-0.27c1.05-0.63,2.15-1.3,3.33-2.01h0.01l26.31-15.84l23.21,13.99
			c5.45,3.05,1.7,8.31-2.44,6.54L80.98,28.1l-11.76,7.12l1.26,0.76C81.27,42.5,85.8,45.15,96.5,51.77
			c12.2,6.6,32.72-12.99,14.88-26.08L81.81,8.07l-12.35,7.21l-0.03,0L25.5,40.89l-0.02-0.05c-4.14,1.76-7.94-3.61-2.5-6.66
			c2.18-1.25,4.35-2.5,6.53-3.75v0l26-15.16l-0.65-0.39L43.43,8.07L13.86,25.69c-17.84,13.09,2.68,32.68,14.88,26.08
			C35.9,47.34,40.29,44.69,45.64,41.47L45.64,41.47z M48.11,48.01l-0.2,0.12l0,0c-5.2,3.14-10.39,6.28-15.56,9.48l-0.17,0.1
			l-0.17,0.09c-1.6,0.87-3.33,1.48-5.11,1.82c-6.54,1.25-13.35-1.13-18.39-5.3c-4.01-3.31-7.07-7.87-8.11-13.01
			c-1.75-8.65,2.56-16.14,9.41-21.16l0.27-0.19L43.43,0.07l13.49,8.04l5.37,3.2L81.7,0l33.49,19.95l0.27,0.19
			c6.85,5.03,11.16,12.51,9.41,21.16c-2.68,13.23-19.13,23.25-31.62,16.49l-0.17-0.09l-0.17-0.1c-8.07-4.99-16.2-9.86-24.32-14.76
			l-5.95-3.58l-5.95,3.58C53.82,44.57,50.97,46.29,48.11,48.01L48.11,48.01z"/>
		<path class="st19" d="M43.24,139.1c0,0,4.15,20.36,26.3,30.2c20.38,0,59.24-16.36,55.45-61.37
			C124.99,107.94,110.61,164.42,43.24,139.1z"/>
		<path class="st19" d="M39.1,132.22l0.21-74.04c-1.58,0.97-3.18,1.94-4.78,2.94l-0.27,0.17l-0.28,0.15
			c-1.97,1.07-4.09,1.82-6.31,2.24c-1.41,0.27-2.87,0.41-4.33,0.41c-6.13,0-12.33-2.34-17.47-6.58c-2.33-1.92-4.3-4.15-5.87-6.56
			c0,28.18,0,56.56,0,61.25c0,46.67,39.45,57.1,62.56,57.1C40.16,156.27,39.1,132.22,39.1,132.22z"/>
		<path class="st19" d="M71.12,49.21l-8.49-5.12l-12.57,7.58c-2.2,1.33-4.49,2.71-6.81,4.12v79.56c15.61,5.86,28.37,7.33,38.76,6.14
			V55.79C78.35,53.57,74.7,51.37,71.12,49.21z"/>
		<path class="st19" d="M101.91,64.11c-3.79,0-7.37-0.9-10.64-2.66l-0.28-0.15l-0.27-0.16c-1.8-1.11-3.62-2.23-5.44-3.34
			l-0.34,83.44c0,0,31.08-1.79,40.3-43.72c0-1.8,0-22.63,0-46.6C120.19,58.66,111.14,64.1,101.91,64.11z"/>
	</g>
	<g>
		<path class="st20" d="M154.59,43.87c0.24,0,2.54-0.37,2.54-4.51v-22.8c0-4.14-2.3-4.51-2.54-4.51v-0.08h11.73v0.08
			c-0.25,0-2.54,0.37-2.54,4.51v22.8c0,4.14,2.3,4.51,2.54,4.51v0.08h-11.73V43.87z"/>
		<path class="st20" d="M173.37,43.87c0.25,0,2.54-0.37,2.54-4.51v-22.8c0-4.14-2.3-4.51-2.54-4.51v-0.08H181l17.71,21.53V16.56
			c0-4.14-2.3-4.51-2.54-4.51v-0.08h6.23v0.08c-0.25,0-2.54,0.37-2.54,4.51V44.2l-22.8-27.64v22.8c0,4.14,2.3,4.51,2.54,4.51v0.08
			h-6.23V43.87z"/>
		<path class="st20" d="M206.92,18.45h-0.08v-6.48h26.32v6.48h-0.08c0-0.49-0.45-5.41-5.09-5.41h-4.67v26.32
			c0,4.14,2.3,4.51,2.54,4.51v0.08h-11.73v-0.08c0.25,0,2.54-0.37,2.54-4.51V13.04H212C207.37,13.04,206.92,17.96,206.92,18.45z"/>
		<path class="st20" d="M259.82,18.45h-0.08c0-0.49-0.45-5.41-5.08-5.41h-7.05v13.98h6.64c3.61,0,3.98-3.61,3.98-3.98h0.04v9.02
			h-0.04c0-0.37-0.37-3.98-3.98-3.98h-6.64v14.8h7.87c4.63,0,5.08-4.92,5.08-5.41h0.08v6.48h-22.22v-0.08
			c0.24,0,2.54-0.37,2.54-4.51v-22.8c0-4.14-2.3-4.51-2.54-4.51v-0.08h21.4V18.45z"/>
		<path class="st20" d="M268.68,43.87c0.24,0,2.54-0.37,2.54-4.51v-22.8c0-4.14-2.3-4.51-2.54-4.51v-0.08h11.77
			c4.47,0,8.24,0.7,10.37,2.91c1.19,1.23,1.89,2.95,1.89,5.29c0,4.96-3.57,8.69-8.28,9.92c3.53,0,4.84,0.94,5.99,3.49l2.3,5
			c2.01,4.47,4.39,5.29,4.76,5.29v0.08h-6.31c-3.65,0-4.18-1.72-5.95-5.58l-1.6-3.53c-1.52-3.32-2.58-4.14-4.67-4.14h-1.07v8.65
			c0,4.14,2.3,4.51,2.54,4.51v0.08h-11.73V43.87z M278.81,29.64c5.17,0,7.18-4.26,7.18-8.69c0-2.01-0.29-3.81-1.07-5.17
			c-0.94-1.72-2.58-2.75-5.29-2.75h-1.76v16.61H278.81z"/>
		<path class="st20" d="M302.88,43.87c0.24,0,2.54-0.37,2.54-4.51v-22.8c0-4.14-2.3-4.51-2.54-4.51v-0.08h11.73v0.08
			c-0.25,0-2.54,0.37-2.54,4.51v22.8c0,4.14,2.3,4.51,2.54,4.51v0.08h-11.73V43.87z"/>
		<path class="st20" d="M321.66,27.96c0-9.02,5.41-16.56,15.58-16.56s15.58,7.54,15.58,16.56c0,9.02-5.41,16.57-15.58,16.57
			S321.66,36.98,321.66,27.96z M337.25,43.46c6.03,0,8.86-6.89,8.86-15.5c0-8.61-2.83-15.5-8.86-15.5c-6.03,0-8.86,6.89-8.86,15.5
			C328.39,36.57,331.22,43.46,337.25,43.46z"/>
		<path class="st20" d="M359.89,43.87c0.24,0,2.54-0.37,2.54-4.51v-22.8c0-4.14-2.3-4.51-2.54-4.51v-0.08h11.77
			c4.47,0,8.24,0.7,10.37,2.91c1.19,1.23,1.89,2.95,1.89,5.29c0,4.96-3.57,8.69-8.28,9.92c3.53,0,4.84,0.94,5.99,3.49l2.3,5
			c2.01,4.47,4.39,5.29,4.76,5.29v0.08h-6.31c-3.65,0-4.18-1.72-5.95-5.58l-1.6-3.53c-1.52-3.32-2.58-4.14-4.67-4.14h-1.07v8.65
			c0,4.14,2.3,4.51,2.54,4.51v0.08h-11.73V43.87z M370.01,29.64c5.17,0,7.18-4.26,7.18-8.69c0-2.01-0.29-3.81-1.07-5.17
			c-0.94-1.72-2.58-2.75-5.29-2.75h-1.76v16.61H370.01z"/>
	</g>
	<g class="st21">
		<path class="st20" d="M155.24,90.89c0.19,0,2.04-0.3,2.04-3.33V64.79c0-3.03-1.85-3.33-2.04-3.33v-0.04h10.93
			c6.05,0,9.5,1.44,12.18,4.24c2.27,2.38,3.25,5.71,3.25,9.34c0,3.93-1.4,8.51-4.96,11.77c-2.69,2.46-6.88,4.16-12.79,4.16h-8.63
			V90.89z M163.98,90.4c4.31,0,7.57-1.25,9.72-3.22c3.1-2.84,4.43-7.23,4.43-11.5c0-3.48-0.72-6.81-2.57-9.31
			c-2.01-2.69-4.73-4.43-9.91-4.43h-4.96V90.4H163.98z"/>
		<path class="st20" d="M184.5,80.71c0-6.36,3.71-11.84,11.05-11.84c4.88,0,7.34,2.88,7.34,5.75c0,4.69-6.02,5.71-14.94,5.71
			c0.11,6.13,3.22,9.95,7.79,9.95c4.12,0,6.09-2.38,6.81-3.82l0.04,0.04c-0.49,1.66-2.57,4.8-7.87,4.8
			C187.19,91.3,184.5,85.67,184.5,80.71z M199.98,74.02c0-2.65-1.78-4.54-4.42-4.54c-4.35,0-7.38,4.12-7.64,10.33
			C196.69,79.8,199.98,77.31,199.98,74.02z"/>
		<path class="st20" d="M206.14,90.93V84.5h0.04c0.15,1.17,0.38,2.61,1.17,3.82c0.83,1.32,2.42,2.35,5.56,2.35
			c3.82,0,5.75-1.74,5.75-3.9c0-2.19-1.63-3.86-4.09-4.88l-4.31-1.85c-2.57-1.13-4.46-2.65-4.46-5.33c0-3.63,3.59-5.75,8.02-5.75
			c2.76,0,4.46,0.64,6.62,0.64v5.79h-0.08c-0.19-1.02-0.42-2.19-1.29-3.48c-0.91-1.25-2.42-2.38-5.26-2.38
			c-1.97,0-5.26,0.83-5.26,3.67c0,1.85,1.47,3.1,3.59,3.97l4.2,1.78c2.95,1.25,5.18,3.22,5.18,6.28c0,3.33-2.65,6.02-8.28,6.02
			C210.14,91.23,209.12,90.93,206.14,90.93z"/>
		<path class="st20" d="M224.17,69.29v-0.04h5.14v18.76c0,2.61,1.59,2.88,1.78,2.88v0.04h-6.92v-0.04c0.19,0,1.78-0.27,1.78-2.88
			V72.16C225.95,69.55,224.36,69.29,224.17,69.29z M227.46,63.01c1.06,0,1.97,0.91,1.97,2.01s-0.91,2.01-1.97,2.01
			c-1.1,0-2.01-0.91-2.01-2.01S226.37,63.01,227.46,63.01z"/>
		<path class="st20" d="M247.96,96.34c1.13-1.59,1.51-3.78,1.51-6.02v-2.91c-0.91,1.85-3.1,3.9-6.77,3.9
			c-6.77,0-9.68-5.3-9.68-10.93c0-6.7,4.16-11.5,10.44-11.5c3.48,0,5.48,1.97,6.01,2.95v-2.57h5.11v0.04
			c-0.15,0-1.78,0.26-1.78,2.87V89.3c0,1.89-0.08,4.27-1.4,6.24c-1.36,1.97-4.01,3.56-8.25,3.56c-3.97,0-6.17-1.17-7.53-1.17v-6.2
			h0.04c0.3,2.01,0.87,3.9,1.85,4.92c1.55,1.66,3.67,1.85,5.41,1.85C245.24,98.49,246.98,97.66,247.96,96.34z M243.61,90.28
			c3.03,0,5.45-2.01,5.86-4.62v-12.6c-0.68-1.7-2.69-3.1-5.22-3.1c-3.97,0-7.83,2.95-7.83,10.03
			C236.42,86.31,239.22,90.28,243.61,90.28z"/>
		<path class="st20" d="M256.88,69.29v-0.04h5.14v4.88c0.95-2.61,3.48-5.26,7.76-5.26c2.72,0,4.92,0.87,6.13,2.65
			c0.76,1.06,1.17,2.53,1.17,4.2v12.29c0,2.61,1.59,2.88,1.78,2.88v0.04h-6.92v-0.04c0.19,0,1.78-0.27,1.78-2.88V76.66
			c0-1.59-0.23-2.99-0.72-4.05c-0.79-1.7-2.19-2.61-4.24-2.61c-3.44,0-6.39,2.91-6.73,6.2v11.8c0,2.61,1.59,2.88,1.78,2.88v0.04
			h-6.92v-0.04c0.19,0,1.78-0.27,1.78-2.88V72.16C258.66,69.55,257.07,69.29,256.88,69.29z"/>
		<path class="st20" d="M154.59,110.76c0-8.4,5.14-15.66,15.28-15.66c4.31,0,7.22,1.66,9.5,1.66v6.09h-0.08
			c-0.34-2.38-1.1-4.12-2.53-5.26c-1.89-1.44-4.77-1.89-6.88-1.89c-7.15,0-11.73,6.09-11.73,15.06c0,7.76,3.52,14.3,11.35,14.3
			c3.03,0,6.24-0.98,7.79-2.46c0.95-0.95,1.63-2.57,2.01-5.11h0.08v6.7c-1.67,0-6.05,1.47-10.03,1.47
			C158.53,125.67,154.59,118.07,154.59,110.76z"/>
		<path class="st20" d="M182.58,114.32c0-5.79,3.18-11.24,10.52-11.24s10.52,5.45,10.52,11.24c0,5.75-3.18,11.2-10.52,11.2
			S182.58,120.07,182.58,114.32z M193.09,124.95c4.12,0,7.15-4.09,7.15-10.63c0-6.54-3.03-10.63-7.15-10.63s-7.11,4.09-7.11,10.63
			C185.98,120.86,188.97,124.95,193.09,124.95z"/>
		<path class="st20" d="M205.57,103.5v-0.04h5.14v4.88c0.95-2.61,3.48-5.26,7.76-5.26c2.72,0,4.92,0.87,6.13,2.65
			c0.76,1.06,1.17,2.53,1.17,4.2v12.29c0,2.61,1.59,2.88,1.78,2.88v0.04h-6.92v-0.04c0.19,0,1.78-0.27,1.78-2.88v-11.35
			c0-1.59-0.23-2.99-0.72-4.05c-0.79-1.7-2.19-2.61-4.24-2.61c-3.44,0-6.39,2.91-6.73,6.2v11.8c0,2.61,1.59,2.88,1.78,2.88v0.04
			h-6.92v-0.04c0.19,0,1.78-0.27,1.78-2.88v-15.85C207.35,103.77,205.76,103.5,205.57,103.5z"/>
		<path class="st20" d="M230.22,125.14v-6.43h0.04c0.15,1.17,0.38,2.61,1.17,3.82c0.83,1.32,2.42,2.35,5.56,2.35
			c3.82,0,5.75-1.74,5.75-3.9c0-2.19-1.63-3.86-4.09-4.88l-4.31-1.85c-2.57-1.13-4.46-2.65-4.46-5.33c0-3.63,3.59-5.75,8.02-5.75
			c2.76,0,4.46,0.64,6.62,0.64v5.79h-0.08c-0.19-1.02-0.42-2.19-1.29-3.48c-0.91-1.25-2.42-2.38-5.26-2.38
			c-1.97,0-5.26,0.83-5.26,3.67c0,1.85,1.47,3.1,3.59,3.97l4.2,1.78c2.95,1.25,5.18,3.22,5.18,6.28c0,3.33-2.65,6.02-8.28,6.02
			C234.23,125.44,233.21,125.14,230.22,125.14z"/>
		<path class="st20" d="M256.36,124.34c2.01,0.04,3.67-1.63,4.16-2.57h0.04c-0.42,1.1-2.12,3.67-5.56,3.67
			c-2.38,0-5.03-0.98-5.03-4.92v-16.53h-1.7v-0.53h1.7v-5.37h3.37v5.37h6.66v0.53h-6.66v16.3
			C253.33,123.02,254.5,124.31,256.36,124.34z"/>
		<path class="st20" d="M261.27,103.5v-0.04h5.14v4.88c0.95-2.61,2.76-5.26,6.73-5.26c1.06,0,2.12,0.19,2.57,0.19v6.66h-0.08
			c-0.19-1.51-0.57-2.95-1.29-3.9c-0.57-0.87-1.44-1.4-2.69-1.4c-2.61,0-4.92,2.5-5.26,5.79v11.8c0,2.61,1.59,2.88,1.78,2.88v0.04
			h-6.92v-0.04c0.19,0,1.78-0.27,1.78-2.88v-15.85C263.05,103.77,261.46,103.5,261.27,103.5z"/>
		<path class="st20" d="M280.25,122.87c-0.72-1.06-1.13-2.53-1.13-4.2v-12.29c0-2.61-1.63-2.88-1.78-2.88v-0.04h5.11v14.26
			c0,1.59,0.23,2.99,0.72,4.05c0.83,1.74,2.23,2.65,4.24,2.65c3.44,0,6.43-2.95,6.77-6.24v-11.8c0-2.61-1.63-2.88-1.78-2.88v-0.04
			h5.11v18.76c0,2.61,1.63,2.88,1.78,2.88v0.04h-5.11v-4.88c-0.94,2.61-3.48,5.26-7.79,5.26
			C283.69,125.52,281.46,124.65,280.25,122.87z"/>
		<path class="st20" d="M301.2,114.62c0-6.09,3.25-11.54,10.86-11.54c2.69,0,5.64,1.14,6.77,1.14v6.43h-0.11
			c-0.11-0.72-0.11-3.1-1.74-4.92c-1.02-1.14-2.54-2.04-4.73-2.04c-4.62,0-7.64,4.39-7.64,10.74c0,6.09,3.78,10.06,7.83,10.06
			c4.01,0,6.09-2.35,6.81-3.82l0.04,0.04c-0.49,1.66-2.57,4.8-7.87,4.8C304.53,125.52,301.2,120.45,301.2,114.62z"/>
		<path class="st20" d="M329.83,124.34c2.01,0.04,3.67-1.63,4.16-2.57h0.04c-0.42,1.1-2.12,3.67-5.56,3.67
			c-2.38,0-5.03-0.98-5.03-4.92v-16.53h-1.7v-0.53h1.7v-5.37h3.37v5.37h6.66v0.53h-6.66v16.3
			C326.8,123.02,327.97,124.31,329.83,124.34z"/>
		<path class="st20" d="M334.74,103.5v-0.04h5.14v18.76c0,2.61,1.59,2.88,1.78,2.88v0.04h-6.92v-0.04c0.19,0,1.78-0.27,1.78-2.88
			v-15.85C336.52,103.77,334.93,103.5,334.74,103.5z M338.03,97.22c1.06,0,1.97,0.91,1.97,2.01s-0.91,2.01-1.97,2.01
			c-1.1,0-2.01-0.91-2.01-2.01S336.93,97.22,338.03,97.22z"/>
		<path class="st20" d="M343.59,114.32c0-5.79,3.18-11.24,10.52-11.24c7.34,0,10.52,5.45,10.52,11.24c0,5.75-3.18,11.2-10.52,11.2
			C346.77,125.52,343.59,120.07,343.59,114.32z M354.11,124.95c4.12,0,7.15-4.09,7.15-10.63c0-6.54-3.03-10.63-7.15-10.63
			c-4.12,0-7.11,4.09-7.11,10.63C346.99,120.86,349.98,124.95,354.11,124.95z"/>
		<path class="st20" d="M366.58,103.5v-0.04h5.14v4.88c0.95-2.61,3.48-5.26,7.76-5.26c2.72,0,4.92,0.87,6.13,2.65
			c0.76,1.06,1.17,2.53,1.17,4.2v12.29c0,2.61,1.59,2.88,1.78,2.88v0.04h-6.92v-0.04c0.19,0,1.78-0.27,1.78-2.88v-11.35
			c0-1.59-0.23-2.99-0.72-4.05c-0.79-1.7-2.19-2.61-4.24-2.61c-3.44,0-6.39,2.91-6.73,6.2v11.8c0,2.61,1.59,2.88,1.78,2.88v0.04
			h-6.92v-0.04c0.19,0,1.78-0.27,1.78-2.88v-15.85C368.36,103.77,366.77,103.5,366.58,103.5z"/>
		<path class="st20" d="M155.24,159.31c0.19,0,2.04-0.3,2.04-3.33v-22.77c0-3.03-1.85-3.33-2.04-3.33v-0.04h9.12
			c2.27,0,4.5,0.34,6.02,1.13c2.54,1.21,3.82,3.25,3.82,6.43c0,2.95-1.21,5.15-3.14,6.66c-2.34,1.85-5.71,2.72-9.15,2.72h-1.21v9.19
			c0,3.03,1.89,3.33,2.04,3.33v0.04h-7.49V159.31z M161.59,146.23c2.69,0,5.26-0.57,7-2.27c1.36-1.36,2.19-3.4,2.19-6.32
			c0-2.35-0.76-4.2-1.93-5.37c-1.13-1.25-2.72-1.89-5.18-1.89h-2.99v15.85H161.59z"/>
		<path class="st20" d="M175.66,137.71v-0.04h5.14v4.88c0.95-2.61,2.76-5.26,6.73-5.26c1.06,0,2.12,0.19,2.57,0.19v6.66h-0.08
			c-0.19-1.51-0.57-2.95-1.29-3.9c-0.57-0.87-1.44-1.4-2.69-1.4c-2.61,0-4.92,2.5-5.26,5.79v11.8c0,2.61,1.59,2.88,1.78,2.88v0.04
			h-6.92v-0.04c0.19,0,1.78-0.27,1.78-2.88v-15.85C177.44,137.98,175.85,137.71,175.66,137.71z"/>
		<path class="st20" d="M190.48,148.53c0-5.79,3.18-11.24,10.52-11.24s10.52,5.45,10.52,11.24c0,5.75-3.18,11.2-10.52,11.2
			S190.48,154.28,190.48,148.53z M201,159.16c4.12,0,7.15-4.09,7.15-10.63s-3.03-10.63-7.15-10.63s-7.11,4.09-7.11,10.63
			S196.87,159.16,201,159.16z"/>
		<path class="st20" d="M229.09,129.13v-0.04h5.11v27.35c0,2.61,1.63,2.88,1.78,2.88v0.04h-5.11v-3.52c-0.91,1.85-3.1,3.9-6.77,3.9
			c-6.77,0-9.68-5.3-9.68-10.93c0-6.7,4.16-11.5,10.44-11.5c3.48,0,5.49,1.97,6.01,2.95V132
			C230.87,129.39,229.24,129.13,229.09,129.13z M225.01,158.71c3.03,0,5.45-2.01,5.86-4.62v-12.6c-0.68-1.7-2.69-3.1-5.22-3.1
			c-3.97,0-7.83,2.95-7.83,10.03C217.82,154.74,220.62,158.71,225.01,158.71z"/>
		<path class="st20" d="M240.81,157.08c-0.72-1.06-1.13-2.54-1.13-4.2v-12.29c0-2.61-1.63-2.87-1.78-2.87v-0.04H243v14.26
			c0,1.59,0.23,2.99,0.72,4.05c0.83,1.74,2.23,2.65,4.24,2.65c3.44,0,6.43-2.95,6.77-6.24v-11.8c0-2.61-1.63-2.87-1.78-2.87v-0.04
			h5.11v18.76c0,2.61,1.63,2.88,1.78,2.88v0.04h-5.11v-4.88c-0.94,2.61-3.48,5.26-7.79,5.26
			C244.25,159.73,242.02,158.86,240.81,157.08z"/>
		<path class="st20" d="M261.76,148.84c0-6.09,3.25-11.54,10.86-11.54c2.69,0,5.64,1.14,6.77,1.14v6.43h-0.11
			c-0.11-0.72-0.11-3.1-1.74-4.92c-1.02-1.14-2.54-2.04-4.73-2.04c-4.62,0-7.64,4.39-7.64,10.74c0,6.09,3.78,10.06,7.83,10.06
			c4.01,0,6.09-2.35,6.81-3.82l0.04,0.04c-0.49,1.66-2.57,4.8-7.87,4.8C265.09,159.73,261.76,154.66,261.76,148.84z"/>
		<path class="st20" d="M290.39,158.56c2.01,0.04,3.67-1.63,4.16-2.57h0.04c-0.42,1.1-2.12,3.67-5.56,3.67
			c-2.38,0-5.03-0.98-5.03-4.92v-16.53h-1.7v-0.53h1.7v-5.37h3.37v5.37h6.66v0.53h-6.66v16.3
			C287.36,157.23,288.53,158.52,290.39,158.56z"/>
		<path class="st20" d="M295.3,137.71v-0.04h5.14v18.76c0,2.61,1.59,2.88,1.78,2.88v0.04h-6.92v-0.04c0.19,0,1.78-0.27,1.78-2.88
			v-15.85C297.08,137.98,295.49,137.71,295.3,137.71z M298.59,131.43c1.06,0,1.97,0.91,1.97,2.01s-0.91,2.01-1.97,2.01
			c-1.1,0-2.01-0.91-2.01-2.01S297.49,131.43,298.59,131.43z"/>
		<path class="st20" d="M304.15,148.53c0-5.79,3.18-11.24,10.52-11.24c7.34,0,10.52,5.45,10.52,11.24c0,5.75-3.18,11.2-10.52,11.2
			C307.33,159.73,304.15,154.28,304.15,148.53z M314.67,159.16c4.12,0,7.15-4.09,7.15-10.63s-3.03-10.63-7.15-10.63
			c-4.12,0-7.11,4.09-7.11,10.63S310.54,159.16,314.67,159.16z"/>
		<path class="st20" d="M327.14,137.71v-0.04h5.14v4.88c0.95-2.61,3.48-5.26,7.76-5.26c2.72,0,4.92,0.87,6.13,2.65
			c0.76,1.06,1.17,2.53,1.17,4.2v12.29c0,2.61,1.59,2.88,1.78,2.88v0.04h-6.92v-0.04c0.19,0,1.78-0.27,1.78-2.88v-11.35
			c0-1.59-0.23-2.99-0.72-4.05c-0.79-1.7-2.19-2.61-4.24-2.61c-3.44,0-6.39,2.91-6.73,6.2v11.8c0,2.61,1.59,2.88,1.78,2.88v0.04
			h-6.92v-0.04c0.19,0,1.78-0.27,1.78-2.88v-15.85C328.92,137.98,327.33,137.71,327.14,137.71z"/>
	</g>
</g>
</svg>
